<svg xmlns="http://www.w3.org/2000/svg" xmlns:xlink="http://www.w3.org/1999/xlink">
    <symbol id="home" viewBox="0 0 330.242 330.242">
        <path d="M324.442,129.811l-41.321-33.677V42.275c0-6.065-4.935-11-11-11h-26c-6.065,0-11,4.935-11,11v14.737l-55.213-44.999
            c-3.994-3.254-9.258-5.047-14.822-5.047c-5.542,0-10.781,1.782-14.753,5.019L5.8,129.81c-6.567,5.351-6.173,10.012-5.354,12.314
            c0.817,2.297,3.448,6.151,11.884,6.151h19.791v154.947c0,11.058,8.972,20.053,20,20.053h62.5c10.935,0,19.5-8.809,19.5-20.053
            v-63.541c0-5.446,5.005-10.405,10.5-10.405h42c5.238,0,9.5,4.668,9.5,10.405v63.541c0,10.87,9.388,20.053,20.5,20.053h61.5
            c11.028,0,20-8.996,20-20.053V148.275h19.791c8.436,0,11.066-3.854,11.884-6.151C330.615,139.822,331.009,135.161,324.442,129.811z"
        />
    </symbol>
    <symbol id="logo" viewBox="0 0 33 32">
        <path fill="none" d="M24.1011 16C24.1011 15.5945 24.3801 15.2398 24.7776 15.1478C27.7445 14.4559 29.8158 11.8427 29.8158 8.78711C29.8158 5.18162 26.89 2.25 23.2975 2.25C20.2318 2.25 17.5474 4.43318 16.9193 7.43882C16.8349 7.84341 16.4783 8.13464 16.0639 8.13464C15.6495 8.13464 15.2929 7.84334 15.2085 7.43868L24.1011 16ZM24.1011 16C24.1011 16.4052 24.3798 16.7598 24.7769 16.8521L24.1011 16ZM7.35008 16.8522C7.74759 16.7602 8.0266 16.4055 8.0266 16C8.0266 15.5948 7.74793 15.2402 7.35082 15.1479L7.35008 16.8522ZM7.35008 16.8522C4.38316 17.5441 2.31186 20.1573 2.31186 23.2129C2.31186 26.8184 5.23764 29.75 8.83015 29.75C11.8957 29.75 14.5801 27.567 15.2085 24.5615L7.35008 16.8522ZM16.0639 23.8654C16.4783 23.8654 16.8349 24.1566 16.9193 24.5612L16.0639 23.8654ZM16.0639 23.8654C15.6495 23.8654 15.293 24.1566 15.2085 24.5611L16.0639 23.8654ZM2.31186 8.78711C2.31186 11.8427 4.38316 14.4559 7.35008 15.1478L2.31186 8.78711ZM2.31186 8.78711C2.31186 5.18162 5.23764 2.25 8.83015 2.25M2.31186 8.78711L8.83015 2.25M8.83015 2.25C11.8957 2.25 14.5801 4.43301 15.2085 7.43851L8.83015 2.25ZM4.75833 16C2.20788 17.4359 0.563843 20.1523 0.563843 23.2129C0.563843 27.7816 4.27048 31.5 8.83015 31.5C11.8854 31.5 14.636 29.7954 16.0639 27.2195C17.4916 29.7954 20.2421 31.5 23.2975 31.5C27.8572 31.5 31.5638 27.7816 31.5638 23.2129C31.5638 20.1523 29.9198 17.4359 27.3694 16C29.9198 14.5641 31.5638 11.8477 31.5638 8.78711C31.5638 4.2184 27.8572 0.5 23.2975 0.5C20.2421 0.5 17.4916 2.20458 16.0639 4.7805C14.636 2.20458 11.8854 0.5 8.83015 0.5C4.27048 0.5 0.563843 4.2184 0.563843 8.78711C0.563843 11.8477 2.20788 14.5641 4.75833 16ZM24.7776 16.8522C27.7445 17.5441 29.8158 20.1573 29.8158 23.2129C29.8158 26.8184 26.89 29.75 23.2975 29.75C20.2319 29.75 17.5475 27.5669 16.9194 24.5613L24.7776 16.8522Z" fill="#3DB370" stroke-width="2" stroke="#3DB370"/>
	</symbol>
    <symbol id="twitter" viewBox="0 0 310 310">
        <path id="XMLID_827_" d="M302.973,57.388c-4.87,2.16-9.877,3.983-14.993,5.463c6.057-6.85,10.675-14.91,13.494-23.73
            c0.632-1.977-0.023-4.141-1.648-5.434c-1.623-1.294-3.878-1.449-5.665-0.39c-10.865,6.444-22.587,11.075-34.878,13.783
            c-12.381-12.098-29.197-18.983-46.581-18.983c-36.695,0-66.549,29.853-66.549,66.547c0,2.89,0.183,5.764,0.545,8.598
            C101.163,99.244,58.83,76.863,29.76,41.204c-1.036-1.271-2.632-1.956-4.266-1.825c-1.635,0.128-3.104,1.05-3.93,2.467
            c-5.896,10.117-9.013,21.688-9.013,33.461c0,16.035,5.725,31.249,15.838,43.137c-3.075-1.065-6.059-2.396-8.907-3.977
            c-1.529-0.851-3.395-0.838-4.914,0.033c-1.52,0.871-2.473,2.473-2.513,4.224c-0.007,0.295-0.007,0.59-0.007,0.889
            c0,23.935,12.882,45.484,32.577,57.229c-1.692-0.169-3.383-0.414-5.063-0.735c-1.732-0.331-3.513,0.276-4.681,1.597
            c-1.17,1.32-1.557,3.16-1.018,4.84c7.29,22.76,26.059,39.501,48.749,44.605c-18.819,11.787-40.34,17.961-62.932,17.961
            c-4.714,0-9.455-0.277-14.095-0.826c-2.305-0.274-4.509,1.087-5.294,3.279c-0.785,2.193,0.047,4.638,2.008,5.895
            c29.023,18.609,62.582,28.445,97.047,28.445c67.754,0,110.139-31.95,133.764-58.753c29.46-33.421,46.356-77.658,46.356-121.367
            c0-1.826-0.028-3.67-0.084-5.508c11.623-8.757,21.63-19.355,29.773-31.536c1.237-1.85,1.103-4.295-0.33-5.998
            C307.394,57.037,305.009,56.486,302.973,57.388z"/>
    </symbol>


    <symbol id="">
        <path class="path-1" d="M0.5 16.5C0.5 7.93959 7.43959 1 16 1H48C56.5604 1 63.5 7.93959 63.5 16.5V48.5C63.5 57.0604 56.5604 64 48 64H16C7.43959 64 0.5 57.0604 0.5 48.5V16.5Z" stroke-opacity="0.1"/>
        <path d="M46.2795 31.0316C47.0538 32.2861 46.1253 33.8616 44.5777 33.9175C38.9265 34.1244 33.1644 35.4448 27.7319 38.0443L25.9356 39.014C25.9356 39.0216 25.9108 38.9744 30.2839 46.0894C30.6851 46.7404 30.447 47.572 29.7518 47.9481L28.335 48.7132C27.6399 49.0885 26.7502 48.8657 26.3489 48.2147L21.9869 41.1469L21.2789 41.5298C19.8879 42.2806 18.1093 41.8349 17.306 40.5336L14.0347 35.2331C13.2322 33.9318 13.7086 32.268 15.0996 31.5165L21.5526 28.0309C26.4842 25.0465 30.6632 21.095 33.7958 16.4466C34.6217 15.2208 36.5439 15.2563 37.3182 16.5108L40.1172 21.0469C41.7254 20.1784 43.7825 20.6942 44.7109 22.1987C45.6393 23.7032 45.0879 25.6269 43.4797 26.4954L46.2795 31.0316Z" fill="#D1E7FF"/>
        <path d="M44.7108 22.1987C45.6392 23.7032 45.0878 25.6269 43.4796 26.4955L40.1171 21.0469C41.7253 20.1784 43.7824 20.6942 44.7108 22.1987Z" fill="#D1E7FF"/>
        <path d="M37.3181 16.5108C37.7044 17.1372 37.6797 17.9143 37.2522 18.5168C33.8039 23.3775 29.1821 27.7696 23.5297 31.1909L15.9691 35.2746C15.45 35.5556 15.039 35.9446 14.7516 36.3939L14.0347 35.2331C13.2322 33.9318 13.7086 32.2679 15.0996 31.5164L21.5526 28.0309C26.4842 25.0465 30.6632 21.0949 33.7958 16.4466C34.6217 15.2208 36.5439 15.2564 37.3181 16.5108Z" fill="#E8F3FF"/>
        <path d="M21.5526 28.031L27.7319 38.0443C26.4936 38.7128 22.5154 40.8612 21.2789 41.5299C19.8879 42.2806 18.1093 41.835 17.306 40.5337L14.0347 35.2332C13.2322 33.9319 13.7086 32.2681 15.0996 31.5166L21.5526 28.031Z" fill="#B9DCFF"/>
        <path d="M23.5094 31.2023C15.2984 35.6369 15.8426 35.3283 15.5777 35.5212C15.0788 35.8842 14.3508 35.7452 14.0345 35.2332C13.232 33.9319 13.7084 32.268 15.0994 31.5165L21.5524 28.031L23.5094 31.2023Z" fill="#D1E7FF"/>
        <path d="M27.1118 40.928C24.8145 42.1725 26.5047 41.2567 23.1672 43.0586L21.9869 41.1471L25.9355 39.015L27.1118 40.928Z" fill="#B9DCFF"/>
        <path d="M44.5098 25.6313C44.2434 25.9735 43.897 26.2703 43.4796 26.4954L40.1171 21.047C40.5345 20.8211 40.9826 20.6897 41.4322 20.6444C41.6015 20.9187 44.3621 25.3922 44.5098 25.6313Z" fill="#B9DCFF"/>
        <path d="M44.3357 27.0215C46.8562 25.0404 45.9856 21.1226 42.836 20.3107C42.013 20.0985 41.161 20.1426 40.38 20.4289L37.8774 16.2579C36.859 14.5606 34.3333 14.5156 33.2489 16.1705C30.1708 20.8684 26.07 24.8641 21.2015 27.8962C20.9243 28.0685 20.8215 28.4246 20.9855 28.7144C21.0119 28.7608 25.1572 35.6688 25.1846 35.7145C25.3629 36.0116 25.7577 36.1137 26.0669 35.942C26.3758 35.7704 26.4816 35.3903 26.3033 35.093L22.416 28.6141C27.0582 25.6279 31.1696 21.6745 34.3416 16.8334C34.9089 15.9675 36.2276 15.9943 36.7587 16.8794L45.7197 31.8144C46.2515 32.7006 45.614 33.8118 44.5526 33.8516C38.598 34.0748 32.768 35.5403 27.4377 38.1636C27.415 38.1747 21.3717 41.5326 20.9555 41.7638C19.8752 42.364 18.489 42.0066 17.8654 40.9671L14.5941 35.5146C13.9704 34.4752 14.3418 33.1414 15.4221 32.5412L19.3593 30.3539C19.6682 30.1823 19.7741 29.8022 19.5957 29.5049C19.4174 29.2076 19.0223 29.1059 18.7135 29.2775L14.7762 31.4648C13.0792 32.4076 12.4956 34.5031 13.4754 36.1361L16.7469 41.5885C17.7267 43.2216 19.9045 43.7829 21.6015 42.8401L21.7505 42.7574L25.7895 49.489C26.3696 50.4559 27.6525 50.7871 28.6579 50.2286L30.0746 49.4416C31.0797 48.8832 31.4234 47.6487 30.8431 46.6815L27.9806 41.9106C27.8022 41.6134 27.4072 41.5116 27.0983 41.6832C26.7894 41.8548 26.6836 42.2349 26.8619 42.5321L29.7245 47.303C29.9478 47.6751 29.8156 48.1503 29.4287 48.3651L28.0121 49.1522C27.6253 49.367 27.1315 49.2397 26.9082 48.8675L22.8692 42.1359L28.0406 39.2629C33.101 36.775 38.7307 35.3136 44.603 35.0935C46.6381 35.0171 47.8553 32.8873 46.8384 31.1928L44.3357 27.0215ZM44.1512 22.7291C44.7888 23.7919 44.5598 25.1106 43.6771 25.9239L41.0384 21.526C42.1952 21.1994 43.5033 21.6492 44.1512 22.7291ZM50.4682 19.9661L48.7971 20.8945C48.488 21.0662 48.0931 20.9642 47.9149 20.6671C47.7365 20.3699 47.8424 19.9897 48.1513 19.8181L49.8224 18.8897C50.1315 18.718 50.5264 18.82 50.7046 19.1172C50.883 19.4144 50.7771 19.7945 50.4682 19.9661ZM43.2815 16.424L43.6891 14.9608C43.7814 14.6292 44.1354 14.4326 44.4802 14.5213C44.8247 14.6102 45.0292 14.951 44.9368 15.2824L44.5293 16.7457C44.4371 17.0764 44.0839 17.274 43.7382 17.1852C43.3937 17.0963 43.1892 16.7556 43.2815 16.424ZM51.7287 26.6022C51.6514 26.8798 51.3904 27.0629 51.1052 27.0629C50.9883 27.0629 51.0701 27.0757 49.4169 26.6495C49.0724 26.5606 48.8679 26.2199 48.9602 25.8883C49.0526 25.5568 49.4067 25.3602 49.7512 25.4489L51.272 25.8409C51.6165 25.9298 51.8211 26.2706 51.7287 26.6022Z" fill="#007FFC"/>
    </symbol>
</svg>